<mxfile host="app.diagrams.net" modified="2021-09-21T20:26:33.189Z" agent="5.0 (Windows NT 10.0; Win64; x64) AppleWebKit/537.36 (KHTML, like Gecko) Chrome/92.0.4515.131 Safari/537.36 OPR/78.0.4093.214" etag="C6O9JzwazjYATjIOOokk" version="15.1.2" type="github">
  <diagram id="VxkHhNuhMuofU4TELfG2" name="Page-1">
    <mxGraphModel dx="1509" dy="877" grid="1" gridSize="10" guides="1" tooltips="1" connect="1" arrows="1" fold="1" page="1" pageScale="1" pageWidth="827" pageHeight="1169" math="0" shadow="0">
      <root>
        <mxCell id="0" />
        <mxCell id="1" parent="0" />
        <mxCell id="NPQQymwvNU5Pvd64ZGO6-2" value="" style="rounded=0;whiteSpace=wrap;html=1;" parent="1" vertex="1">
          <mxGeometry x="160" y="160" width="580" height="600" as="geometry" />
        </mxCell>
        <mxCell id="NPQQymwvNU5Pvd64ZGO6-3" value="Administrador" style="shape=umlActor;verticalLabelPosition=bottom;verticalAlign=top;html=1;" parent="1" vertex="1">
          <mxGeometry x="280" y="40" width="30" height="60" as="geometry" />
        </mxCell>
        <mxCell id="j7om3JOUFR156DpUftkM-3" value="Usuario" style="shape=umlActor;verticalLabelPosition=bottom;verticalAlign=top;html=1;" vertex="1" parent="1">
          <mxGeometry x="80" y="280" width="30" height="60" as="geometry" />
        </mxCell>
      </root>
    </mxGraphModel>
  </diagram>
</mxfile>
